# xmcd
#
# Track frame offsets:
#	150
#	16813
#	30394
#	40540
#	60960
#	73295
#	87871
#	107790
#	121564
#	137747
#	151650
#	165444
#
# Disc length: 2411 seconds
#
# Revision: 1
# Processed by: cddbd v1.5.2PL0 Copyright (c) Steve Scherf et al.
# Submitted via: FairStars CD Ripper 1.90
#
DISCID=8109690c
DTITLE=Big Matt Hunter - Keepin' it Country
DYEAR=2002
DGENRE=Country
TTITLE0=Ride Safe Sign
TTITLE1=I Recall A Gypsy Woman
TTITLE2=Some Broken Hearts Never Mend
TTITLE3=Sunday Morning Coming Down
TTITLE4=Why Me Lord
TTITLE5=Fighting Side of Me
TTITLE6=I'll Be Tue To You
TTITLE7=You're My Best Friend
TTITLE8=Lucille
TTITLE9=Woman Beautiful Woman
TTITLE10=Laura's Theme
TTITLE11=The Gambler
EXTD=
EXTT0=
EXTT1=
EXTT2=
EXTT3=
EXTT4=
EXTT5=
EXTT6=
EXTT7=
EXTT8=
EXTT9=
EXTT10=
EXTT11=
PLAYORDER=
